<svg xmlns="http://www.w3.org/2000/svg" viewBox="0 0 500 500">
    <g id="freepik--background-simple--inject-207">
        <path d="M410.87,129.77l-2.14-3.48c-18.05-29.37-50.68-47.07-85.08-44.93a91.56,91.56,0,0,0-13.18,1.79c-31.28,6.61-58.49,30-69.77,59.88-6.64,17.6-8.49,37.85-21.08,51.82-16.39,18.17-44.21,18.74-68.67,18s-52.3-.11-68.6,18.13c-10.22,11.43-13.46,27.68-12.64,43,2.18,40.52,30.77,76.75,67.13,94.75s79.17,19.62,119,11.7c55.74-11.09,108.76-41.57,140.62-88.64S436.36,180.57,410.87,129.77Z"
              style="fill:#ebebeb"></path>
    </g>
    <g id="freepik--Plant--inject-207">
        <path d="M385,133.69a3,3,0,0,1,.06-.35c.05-.25.12-.59.22-1l.86-3.92c.77-3.41,1.89-8.32,3.26-14.39,2.79-12.17,6.65-29,10.92-47.58l.19-.84.19.84c.08.33.16.69.24,1,4.25,18.88,8.1,36,10.89,48.35l3.25,14.66c.38,1.72.67,3.06.87,4l.21,1a3,3,0,0,1,.06.36s0-.12-.1-.35l-.25-1c-.22-.93-.53-2.27-.94-4l-3.37-14.63c-2.82-12.38-6.71-29.45-11-48.32-.08-.36-.16-.72-.24-1.06h.38c-4.31,18.61-8.21,35.4-11,47.56-1.43,6.06-2.58,11-3.38,14.37-.4,1.68-.72,3-.94,3.9-.11.43-.19.76-.25,1S385,133.69,385,133.69Z"
              style="fill:#263238"></path>
        <path d="M385,147.82V135.88h31.87v11.94a13.9,13.9,0,0,1-13.9,13.91h-4.06A13.91,13.91,0,0,1,385,147.82Z"
              style="fill:#455a64"></path>
        <path d="M385,135.88a2.81,2.81,0,0,1,.36.5l1,1.48,3.51,5.48,11.46,18.16.08.12H401c4.33-7.12,8.25-13.56,11.12-18.26l3.4-5.5c.39-.63.71-1.12.94-1.49a3.26,3.26,0,0,1,.35-.5,2.69,2.69,0,0,1-.28.54l-.88,1.52-3.3,5.57c-2.83,4.72-6.72,11.18-11,18.32l-.16.27-.17-.27-.08-.13-11.37-18.22-3.4-5.54c-.38-.64-.69-1.14-.91-1.52A4.27,4.27,0,0,1,385,135.88Z"
              style="fill:#263238"></path>
        <path d="M404.06,66.32a3.48,3.48,0,1,1-3.48-3.48A3.48,3.48,0,0,1,404.06,66.32Z" style="fill:#263238"></path>
        <path d="M400.58,7.08c.11,0,.2,13.41.2,30S400.69,67,400.58,67s-.19-13.4-.19-29.94S400.47,7.08,400.58,7.08Z"
              style="fill:#263238"></path>
        <path d="M402.39,163a1.49,1.49,0,1,1-1.49-1.49A1.49,1.49,0,0,1,402.39,163Z" style="fill:#263238"></path>
        <path d="M400.24,163.58l.24-.12a3.33,3.33,0,0,0-1.51,2.47,8.79,8.79,0,0,0,.26,3c.06.31.23.69.54.67s.42-.35.47-.63a6.32,6.32,0,0,0,.05-1.79,3.12,3.12,0,0,0,.69,2.11c.09.11.23.23.37.19s.19-.19.23-.33a6.57,6.57,0,0,0,.22-1.53,2.37,2.37,0,0,0,.48,1.25.82.82,0,0,0,1.19.07,1.17,1.17,0,0,0,.12-.87,10.27,10.27,0,0,0-2.08-4.89"
              style="fill:#263238"></path>
        <path d="M387,135.88s-14.32-16.51-12.73-17.11,14.32,8.55,14.32,8.55-10.94-24.46-8.75-26.25,13.72,21.68,13.72,21.68-1.79-34.21,0-34.6,8.35,34.2,8.35,34.2,9.75-31.62,12.53-31.62-3,30.43-3,30.43,11.53-19.49,13.32-16.9-8.15,23.66-8.15,23.66,14.52-12.13,15.11-10.54S416,135.88,416,135.88Z"
              style="fill:#7E57C2"></path>
        <path d="M385,111c.1,0,2.64,5.4,5.67,12.16s5.42,12.27,5.32,12.32-2.64-5.4-5.68-12.16S384.87,111.06,385,111Z"
              style="fill:#263238"></path>
        <path d="M396.54,114.06c.11,0,.53,4.79.94,10.72s.66,10.74.55,10.74-.53-4.79-.94-10.72S396.43,114.07,396.54,114.06Z"
              style="fill:#263238"></path>
        <path d="M412.49,98.74s0,.14-.08.39l-.32,1.09c-.3,1-.7,2.34-1.19,4-1,3.36-2.37,8-3.75,13.2s-2.53,9.9-3.33,13.32l-.95,4.05c-.1.44-.19.8-.26,1.1a2.25,2.25,0,0,1-.12.38s0-.14,0-.4.12-.67.19-1.11c.18-1,.46-2.37.83-4.08.73-3.44,1.84-8.18,3.22-13.36s2.78-9.84,3.86-13.18c.54-1.68,1-3,1.32-4l.38-1.07A2.6,2.6,0,0,1,412.49,98.74Z"
              style="fill:#263238"></path>
        <path d="M419.39,116.37c.09.06-2.7,4.23-6.24,9.31s-6.48,9.14-6.56,9.08,2.7-4.23,6.24-9.31S419.3,116.31,419.39,116.37Z"
              style="fill:#263238"></path>
        <path d="M391.8,135.53a5.69,5.69,0,0,1-1.25-.9,35.75,35.75,0,0,1-2.73-2.51,34.16,34.16,0,0,1-2.44-2.79,5.44,5.44,0,0,1-.87-1.28c.09-.07,1.58,1.73,3.59,3.79S391.87,135.44,391.8,135.53Z"
              style="fill:#263238"></path>
        <path d="M400.5,129a15.11,15.11,0,0,1,.5,3.4,14.68,14.68,0,0,1,.12,3.44,15.44,15.44,0,0,1-.51-3.4A15,15,0,0,1,400.5,129Z"
              style="fill:#263238"></path>
        <path d="M416.83,143.32a6.35,6.35,0,0,1-1.23.25c-.79.15-2,.33-3.38.52a112,112,0,0,1-11.27,1,72.22,72.22,0,0,1-11.3-.48c-1.44-.18-2.59-.37-3.38-.54a8.66,8.66,0,0,1-1.23-.29,6.67,6.67,0,0,1,1.25.14c.8.12,2,.27,3.39.42a84.29,84.29,0,0,0,11.26.35c4.4-.15,8.37-.56,11.24-.88l3.4-.4A7.22,7.22,0,0,1,416.83,143.32Z"
              style="fill:#fff"></path>
        <path d="M416.83,146.88a9.15,9.15,0,0,1-1.23.25c-.79.14-2,.32-3.38.52a109.49,109.49,0,0,1-11.27,1,71.16,71.16,0,0,1-11.3-.47c-1.44-.19-2.59-.37-3.38-.54a7.69,7.69,0,0,1-1.23-.3,9.89,9.89,0,0,1,1.25.14c.8.13,2,.27,3.39.42a82.42,82.42,0,0,0,11.26.36c4.4-.15,8.37-.56,11.24-.89l3.4-.39A7.22,7.22,0,0,1,416.83,146.88Z"
              style="fill:#fff"></path>
    </g>
    <g id="freepik--Character--inject-207">
        <path d="M182.47,178.34,179,186.7a29.81,29.81,0,0,1,1.81,5.91c.17,1.93-1.4,10.14-1.4,10.14a2.08,2.08,0,0,1-2.13-1.57,33.37,33.37,0,0,1,.32-4.81h0a2.06,2.06,0,0,0-3.48.35c-1,2-2.14,4.36-2.34,4.63s.14,3.32.46,5.56A1.38,1.38,0,0,1,169.8,208a.64.64,0,0,1-.15-.35s-1.31,1.92-2.6-1.61c0,0-2.6-1.32-2.66-3.48,0,0-2.37-2.66-2.69-4.25s5.11-11.2,5.11-11.2l6.68-13.8Z"
              style="fill:#ffbe9d"></path>
        <path d="M170.84,195.53a6,6,0,0,0-1.18,1.51,10,10,0,0,0-1.71,4.32,9.21,9.21,0,0,0,.91,4.56,6.05,6.05,0,0,0,.91,1.68,10,10,0,0,0-.59-1.81,10.33,10.33,0,0,1-.74-4.38,11.6,11.6,0,0,1,1.52-4.19A9.05,9.05,0,0,0,170.84,195.53Z"
              style="fill:#eb996e"></path>
        <path d="M168.19,194.94c-.05,0-.57.41-1.15,1.33a13.34,13.34,0,0,0-.9,1.68,6,6,0,0,0-.58,2.31,10.32,10.32,0,0,0,.38,2.31c.17.63.33,1.24.48,1.82A6.17,6.17,0,0,0,167,206a6.65,6.65,0,0,0-.23-1.73c-.09-.52-.22-1.15-.37-1.84a11.85,11.85,0,0,1-.34-2.22,6.28,6.28,0,0,1,.51-2.13c.26-.64.54-1.21.78-1.68C167.83,195.51,168.24,195,168.19,194.94Z"
              style="fill:#eb996e"></path>
        <path d="M165.08,194.52c-.18-.09-1,1.68-1.82,3.88a1.93,1.93,0,0,0-.09,1c0,.29.08.56.13.82a8.1,8.1,0,0,0,.41,1.33c.3.73.63,1.12.68,1.08a6.6,6.6,0,0,0-.35-1.2,11.77,11.77,0,0,1-.29-1.3c0-.24-.08-.5-.1-.77a1.62,1.62,0,0,1,.07-.74c.43-1.11.77-2.11,1-2.85A5.42,5.42,0,0,0,165.08,194.52Z"
              style="fill:#eb996e"></path>
        <path d="M322.84,157.89l3.49-3.56a1.77,1.77,0,0,1,.92-.61c.66-.11,1.23.56,1.26,1.22a3.14,3.14,0,0,1-.69,1.83,4.68,4.68,0,0,0-.87,1.76"
              style="fill:#ffbe9d"></path>
        <path d="M356.73,128.13l-18.43,32-34.47.25h0a3.08,3.08,0,0,1,2.8-3.22l30.16-.61,15.67-26.87c1.1-1.89,2.22-2.29,4.27-1.53Z"
              style="fill:#263238"></path>
        <path d="M325.81,160.19c.17,0-10.89,0-10.27.17.06.12.11.24.16.36l1.44,6.32c2.49,0,9.66-1.89,9.66-1.89a16.74,16.74,0,0,0,3.47-2.7v-2.28Z"
              style="fill:#ffbe9d"></path>
        <path d="M316.06,160.22l-26.22-1.09-12.12-28.58L264.84,149l10.37,18.65a13.29,13.29,0,0,0,12.2,6.81l30.56-3.5Z"
              style="fill:#7E57C2"></path>
        <path d="M320.08,293.7l2,18.45S341.32,315,342,318.34l-35.42,6.53-4.33-28.62Z" style="fill:#7E57C2"></path>
        <g style="opacity:0.6000000000000001">
            <path d="M310.86,312.22a1.47,1.47,0,0,0-.77,1.8,1.42,1.42,0,0,0,1.79.78,1.56,1.56,0,0,0,.8-1.92,1.47,1.47,0,0,0-1.95-.6"
                  style="fill:#fff"></path>
        </g>
        <g style="opacity:0.6000000000000001">
            <path d="M306.61,324.87l-.44-2.88,34.42-5.12a2.5,2.5,0,0,1,1.67,1.69Z" style="fill:#fff"></path>
        </g>
        <path d="M322.66,311.89c0,.17-.84.38-1.62,1.06s-1.12,1.48-1.29,1.44-.06-1.09.89-1.9S322.67,311.72,322.66,311.89Z"
              style="fill:#263238"></path>
        <path d="M326.62,312.89c.06.16-.65.57-1.13,1.39s-.54,1.62-.72,1.64-.42-.95.2-2S326.59,312.72,326.62,312.89Z"
              style="fill:#263238"></path>
        <path d="M329.4,317.05c-.16.06-.53-.77-.22-1.79s1.07-1.52,1.16-1.38-.33.71-.57,1.55S329.57,317,329.4,317.05Z"
              style="fill:#263238"></path>
        <path d="M321.73,307.73c-.05.17-.88,0-1.86.26s-1.69.63-1.81.5.54-.87,1.69-1.1S321.79,307.58,321.73,307.73Z"
              style="fill:#263238"></path>
        <g style="opacity:0.30000000000000004">
            <polygon points="320.48 297.36 320.84 300.64 303.31 303.04 302.77 299.59 320.48 297.36"></polygon>
        </g>
        <path d="M321.25,304a3.38,3.38,0,0,1-1.78.25,8.43,8.43,0,0,1-2-.3,7.33,7.33,0,0,1-1.1-.4,2.19,2.19,0,0,1-.6-.34.76.76,0,0,1-.22-.91,1,1,0,0,1,.71-.51,2.23,2.23,0,0,1,.68,0,7.13,7.13,0,0,1,1.17.22,6.41,6.41,0,0,1,1.8.84c.94.65,1.32,1.26,1.26,1.3s-.55-.42-1.48-.93a7.19,7.19,0,0,0-1.73-.66,6.84,6.84,0,0,0-1.07-.17c-.39,0-.71,0-.78.18s0,.1.07.2a1.6,1.6,0,0,0,.44.25,8.6,8.6,0,0,0,1,.4,9.83,9.83,0,0,0,1.82.41A10.67,10.67,0,0,1,321.25,304Z"
              style="fill:#263238"></path>
        <path d="M321.06,304.3c-.06,0-.49-.54-.72-1.66a5.91,5.91,0,0,1,0-2,5.7,5.7,0,0,1,.29-1.15,1.49,1.49,0,0,1,1-1.06.84.84,0,0,1,.82.39,2.39,2.39,0,0,1,.28.62,4,4,0,0,1,.17,1.21,4.15,4.15,0,0,1-.49,1.95c-.56,1-1.26,1.34-1.28,1.28a13.52,13.52,0,0,0,.89-1.47,4.07,4.07,0,0,0,.32-1.76,3.71,3.71,0,0,0-.18-1c-.11-.37-.3-.66-.44-.6s-.43.35-.54.68a6.67,6.67,0,0,0-.3,1,6.47,6.47,0,0,0-.08,1.83C320.87,303.64,321.15,304.26,321.06,304.3Z"
              style="fill:#263238"></path>
        <path d="M172.67,304l-17.24,6.89s2.45,19.27-.61,20.85L139,299.37l26.41-11.84Z" style="fill:#7E57C2"></path>
        <g style="opacity:0.6000000000000001">
            <path d="M152.36,300.07a1.48,1.48,0,0,0-2-.25,1.41,1.41,0,0,0-.26,1.93,1.55,1.55,0,0,0,2.06.26,1.48,1.48,0,0,0,0-2"
                  style="fill:#fff"></path>
        </g>
        <g style="opacity:0.6000000000000001">
            <path d="M139,299.37l2.66-1.19L155.85,330a2.5,2.5,0,0,1-1.19,2Z" style="fill:#fff"></path>
        </g>
        <path d="M155.84,311.35c-.17.07-.59-.71-1.46-1.27s-1.73-.68-1.73-.86,1-.35,2.07.35S156,311.32,155.84,311.35Z"
              style="fill:#263238"></path>
        <path d="M155.94,315.44c-.14.1-.73-.47-1.65-.72s-1.71-.08-1.77-.25.8-.66,1.94-.34S156.09,315.37,155.94,315.44Z"
              style="fill:#263238"></path>
        <path d="M152.67,319.23c-.1-.13.6-.71,1.67-.69s1.74.62,1.64.75-.78-.13-1.65-.14S152.75,319.38,152.67,319.23Z"
              style="fill:#263238"></path>
        <path d="M159.59,309.34c-.18,0-.28-.83-.74-1.72s-1.07-1.46-1-1.6,1,.28,1.51,1.32S159.75,309.37,159.59,309.34Z"
              style="fill:#263238"></path>
        <g style="opacity:0.30000000000000004">
            <polygon points="169.25 305.36 166.18 306.59 159.17 290.34 161.89 289.11 169.25 305.36"></polygon>
        </g>
        <path d="M163,307.89a3.51,3.51,0,0,1-.72-1.65,8.57,8.57,0,0,1-.23-2,9.46,9.46,0,0,1,.08-1.17,2.13,2.13,0,0,1,.17-.67.76.76,0,0,1,.82-.46,1,1,0,0,1,.68.55,2,2,0,0,1,.19.65,7,7,0,0,1,.1,1.18,6.54,6.54,0,0,1-.32,2,3.09,3.09,0,0,1-.91,1.56c-.09-.05.25-.64.49-1.68a7.31,7.31,0,0,0,.18-1.84,5.68,5.68,0,0,0-.13-1.07c-.06-.39-.19-.69-.38-.71s-.1,0-.17.11a1.83,1.83,0,0,0-.12.5,8.44,8.44,0,0,0-.12,1.09,9.7,9.7,0,0,0,.1,1.86A12.07,12.07,0,0,1,163,307.89Z"
              style="fill:#263238"></path>
        <path d="M162.72,307.78c-.05,0,.38-.62,1.4-1.14a6,6,0,0,1,1.91-.57,5.13,5.13,0,0,1,1.18,0,1.5,1.5,0,0,1,1.3.68.85.85,0,0,1-.15.89,2.52,2.52,0,0,1-.53.44,4,4,0,0,1-1.11.49,4.1,4.1,0,0,1-2,.05c-1.14-.27-1.63-.85-1.58-.89a16.34,16.34,0,0,0,1.65.46,4.05,4.05,0,0,0,1.79-.16,3.68,3.68,0,0,0,.94-.45c.32-.21.55-.46.45-.58a1,1,0,0,0-.79-.34,5.58,5.58,0,0,0-1.08,0,6.57,6.57,0,0,0-1.78.41C163.31,307.42,162.78,307.86,162.72,307.78Z"
              style="fill:#263238"></path>
        <path d="M290.51,69.16c-2.7-1.67-6.46.16-9.32-1.23-1.74-.84-2.73-2.67-4.13-4a9.69,9.69,0,0,0-8.29-2.52C266,62,264,63,262.93,65.63c-1.93-1.9-6.46,0-8.47,2.37S252,73.35,252,76.49a41.69,41.69,0,0,0,2.92,15.85c.18.45.51,1,1,.89s.52-.4.65-.7a34.59,34.59,0,0,0,2-8.21,20.9,20.9,0,0,1,2.64-8c1.54-2.37,4.19-4.2,7-4a9,9,0,0,1,5.47,2.77c1.5,1.45,2.7,3.18,4.08,4.74a11.48,11.48,0,0,0,5,3.62,5.47,5.47,0,0,0,5.75-1.36c1.34-1.6,1.06-4.45-.81-5.39a4.1,4.1,0,0,0,2.83-7.53Z"
              style="fill:#263238"></path>
        <path d="M269,114.06l1.25-5.91s8.08.55,9.93-7.23c.9-3.76,2.12-11.65,3.14-18.8a14.92,14.92,0,0,0-11.48-16.65l-.75-.17c-8.23-1.36-14,4.87-15.11,13.13l-6.34,31.65a9.88,9.88,0,0,0,7.69,11.61l-.22,3C262.46,125.78,267.89,119.39,269,114.06Z"
              style="fill:#ffbe9d"></path>
        <path d="M270.28,108.15a18.58,18.58,0,0,1-9.52-5.19s1.13,6.16,9.08,7.21Z" style="fill:#eb996e"></path>
        <path d="M280.46,87.67a1.15,1.15,0,0,1-1.33.88,1.1,1.1,0,0,1-.92-1.27,1.15,1.15,0,0,1,1.33-.88A1.1,1.1,0,0,1,280.46,87.67Z"
              style="fill:#263238"></path>
        <path d="M280.8,85.55c-.17.12-.88-.7-2.08-1s-2.21.13-2.31,0,.15-.31.6-.5a3.16,3.16,0,0,1,1.89-.15,3,3,0,0,1,1.61,1C280.82,85.21,280.88,85.5,280.8,85.55Z"
              style="fill:#263238"></path>
        <path d="M268.88,85.26a1.13,1.13,0,0,1-1.32.88,1.1,1.1,0,0,1-.93-1.26A1.15,1.15,0,0,1,268,84,1.1,1.1,0,0,1,268.88,85.26Z"
              style="fill:#263238"></path>
        <path d="M269,83.12c-.17.11-.88-.7-2.08-1s-2.21.13-2.31,0,.15-.31.6-.51a3.18,3.18,0,0,1,1.89-.14,3,3,0,0,1,1.61,1C269,82.78,269,83.07,269,83.12Z"
              style="fill:#263238"></path>
        <path d="M271.3,93a8.09,8.09,0,0,1,2,.09c.32,0,.62,0,.72-.15a1.62,1.62,0,0,0,0-1c-.12-.8-.25-1.65-.38-2.53a41.87,41.87,0,0,1-.66-6.56,40.12,40.12,0,0,1,1.19,6.49c.11.88.23,1.73.33,2.54a1.81,1.81,0,0,1-.11,1.24.79.79,0,0,1-.6.33,2.2,2.2,0,0,1-.54,0A7.89,7.89,0,0,1,271.3,93Z"
              style="fill:#263238"></path>
        <path d="M267.59,93c.2,0-.1,1.33.81,2.51s2.32,1.34,2.29,1.53-.36.18-.95.06a3.3,3.3,0,0,1-1.93-1.2,2.89,2.89,0,0,1-.6-2.09C267.28,93.29,267.5,93,267.59,93Z"
              style="fill:#263238"></path>
        <path d="M270.47,77c-.2.3-1.36-.13-2.8-.27s-2.67,0-2.79-.36c-.06-.16.21-.42.74-.63a4.9,4.9,0,0,1,4.26.48C270.35,76.54,270.55,76.86,270.47,77Z"
              style="fill:#263238"></path>
        <path d="M281.14,82c-.27.23-1-.24-2-.48s-1.88-.23-2-.56c-.05-.16.14-.4.57-.57a3,3,0,0,1,3.24.84C281.21,81.57,281.26,81.87,281.14,82Z"
              style="fill:#263238"></path>
        <path d="M255.34,84.35c-.13-.08-5-2.79-6,2.58s4.57,5.31,4.61,5.15S255.34,84.35,255.34,84.35Z"
              style="fill:#ffbe9d"></path>
        <path d="M252.66,89.73s-.11,0-.28.09a.94.94,0,0,1-.7-.12,2.35,2.35,0,0,1-.67-2.28,3.05,3.05,0,0,1,.52-1.29,1.09,1.09,0,0,1,.84-.59.47.47,0,0,1,.5.37c0,.16,0,.26,0,.28s.13-.07.13-.3a.6.6,0,0,0-.15-.38.7.7,0,0,0-.49-.24,1.35,1.35,0,0,0-1.14.65,3.26,3.26,0,0,0-.61,1.43,2.5,2.5,0,0,0,.92,2.59,1,1,0,0,0,.88,0C252.63,89.86,252.68,89.74,252.66,89.73Z"
              style="fill:#eb996e"></path>
        <path d="M285.36,80.85a11.57,11.57,0,0,1-9.51-4.51c-1.53-2-2.47-4.68-4.69-6a6.46,6.46,0,0,0-5-.43,12.58,12.58,0,0,0-4.44,2.55c.61,4.3-1.4,8.5-3.36,12.39a2.2,2.2,0,0,1-.9,1.09c-.74.34-1.6-.25-2-.95a6.77,6.77,0,0,1-.66-3.81,22.38,22.38,0,0,1,2-8.64A15.33,15.33,0,0,1,262.6,66a14.57,14.57,0,0,1,10.78-1.51,17.83,17.83,0,0,1,9.27,5.88,10.53,10.53,0,0,1,2.42,4.52"
              style="fill:#263238"></path>
        <path d="M292.33,71.55a1.3,1.3,0,0,1-.15.45,2.22,2.22,0,0,1-1,.93,3.43,3.43,0,0,1-2.14.22,6.39,6.39,0,0,1-1.31-.38,2.94,2.94,0,0,1-1.21-.94,1.93,1.93,0,0,1-.33-1.66,1.69,1.69,0,0,1,1.44-1.1,2.11,2.11,0,0,1,1,.09,1.78,1.78,0,0,1,.82.62,2.48,2.48,0,0,1,.37,2,2.83,2.83,0,0,1-1.28,1.77,4.35,4.35,0,0,1-2.18.66,7.18,7.18,0,0,1-4.45-1.52,20.81,20.81,0,0,1-3.41-3.27,25.57,25.57,0,0,0-3.06-3.09A8.11,8.11,0,0,0,272,64.65a7.78,7.78,0,0,0-3.38.1,9.75,9.75,0,0,0-4.27,2.42,12,12,0,0,0-.93,1c-.2.23-.31.36-.31.35s0,0,.06-.1a2.17,2.17,0,0,1,.21-.29,11.28,11.28,0,0,1,.9-1,9.6,9.6,0,0,1,4.29-2.53,8,8,0,0,1,3.47-.13,8.41,8.41,0,0,1,3.58,1.74,26.79,26.79,0,0,1,3.1,3.11,20.68,20.68,0,0,0,3.37,3.23A7.06,7.06,0,0,0,286.34,74a4.11,4.11,0,0,0,2.05-.62,2.59,2.59,0,0,0,1.18-1.6,2.25,2.25,0,0,0-.32-1.85,1.67,1.67,0,0,0-1.59-.63,1.48,1.48,0,0,0-1.27.95,1.76,1.76,0,0,0,.28,1.48,2.69,2.69,0,0,0,1.13.89,5.94,5.94,0,0,0,1.27.39,3.47,3.47,0,0,0,2.07-.16,2.24,2.24,0,0,0,1-.87C292.29,71.71,292.31,71.54,292.33,71.55Z"
              style="fill:#455a64"></path>
        <path d="M252.47,72.38a9.59,9.59,0,0,0,1.54.8,4.71,4.71,0,0,0,1.83.21,8,8,0,0,0,2.22-.51,6.41,6.41,0,0,0,3.09-2.64,13.81,13.81,0,0,0,.73-1.57,1.51,1.51,0,0,1-.08.47,5.35,5.35,0,0,1-.48,1.2,6.21,6.21,0,0,1-3.17,2.79,7.36,7.36,0,0,1-2.3.51,4.84,4.84,0,0,1-1.91-.28,4.46,4.46,0,0,1-1.12-.65C252.58,72.52,252.46,72.4,252.47,72.38Z"
              style="fill:#455a64"></path>
        <path d="M251.84,76.3s.61.23,1.63.4A7.48,7.48,0,0,0,260.62,74c.65-.8.91-1.4.95-1.38s0,.16-.15.43a7.26,7.26,0,0,1-.65,1.07,7.24,7.24,0,0,1-7.34,2.78,6.07,6.07,0,0,1-1.19-.37A1.38,1.38,0,0,1,251.84,76.3Z"
              style="fill:#455a64"></path>
        <path d="M263.82,87.32a.15.15,0,0,1,0-.3.13.13,0,0,1,.13.15A.15.15,0,0,1,263.82,87.32Z"
              style="fill:#eb996e"></path>
        <path d="M266.23,87.31c-.07,0-.13-.08-.13-.17a.17.17,0,0,1,.14-.17.16.16,0,0,1,.13.18C266.37,87.24,266.31,87.32,266.23,87.31Z"
              style="fill:#eb996e"></path>
        <path d="M267.78,87.62c-.07,0-.12-.11-.11-.23s.08-.21.16-.21.12.11.11.24S267.86,87.63,267.78,87.62Z"
              style="fill:#eb996e"></path>
        <path d="M264.63,89c-.08,0-.13-.07-.12-.12s.08-.07.15,0,.13.07.12.11S264.7,89,264.63,89Z"
              style="fill:#eb996e"></path>
        <path d="M266.84,89a.15.15,0,0,1-.12-.17c0-.09.08-.15.16-.14a.15.15,0,0,1,.11.17A.14.14,0,0,1,266.84,89Z"
              style="fill:#eb996e"></path>
        <path d="M278.07,90.16a.14.14,0,0,1-.13-.16.15.15,0,0,1,.14-.15.15.15,0,0,1,.13.16A.15.15,0,0,1,278.07,90.16Z"
              style="fill:#eb996e"></path>
        <path d="M279.66,90.37a.16.16,0,0,1-.11-.19c0-.09.08-.16.15-.15a.16.16,0,0,1,.12.19A.16.16,0,0,1,279.66,90.37Z"
              style="fill:#eb996e"></path>
        <path d="M276.68,89.89a.14.14,0,0,1-.13-.13.13.13,0,0,1,.14-.11.12.12,0,0,1,.13.12A.13.13,0,0,1,276.68,89.89Z"
              style="fill:#eb996e"></path>
        <path d="M277.49,91.71a.15.15,0,0,1-.17-.13.16.16,0,0,1,.11-.18.15.15,0,0,1,.16.13A.15.15,0,0,1,277.49,91.71Z"
              style="fill:#eb996e"></path>
        <path d="M278.88,91.74a.12.12,0,0,1-.07-.16.14.14,0,0,1,.24.13A.12.12,0,0,1,278.88,91.74Z"
              style="fill:#eb996e"></path>
        <polygon points="220.73 216.27 205.8 265.4 161.58 287.53 171.12 309.74 233.46 286.41 252.92 226.6 220.73 216.27"
                 style="fill:#263238"></polygon>
        <path d="M226.52,109.47l-40.46,25.68a10,10,0,0,0-4.16,5.38l-12.69,39.15,13.95,4.93L197.88,148l36.43-15.09Z"
              style="fill:#7E57C2"></path>
        <path d="M270,121.49l1.16-1.6-2.11-6.09-5.72,8.67-1.53-4.73-11.48-13.67-5,3.65-18.83,1.75.11.52L223,137.78l-2.19,29.85-4.39,14.62-1.85,2a4.89,4.89,0,0,0-1.18,4.47l.13.52,46.22,15,3.58-5.59,14.37-68.07Z"
              style="fill:#7E57C2"></path>
        <path d="M315.62,236.09a22.89,22.89,0,0,0-15.93-19.44L260,204.15l-46.45-14.92a41,41,0,0,0-3.46,18.86c.56,9.21,10.62,18,20.68,20.59l57.7,14.55,10.88,57,22.91-1.83Z"
              style="fill:#263238"></path>
        <path d="M288.74,243.57a3.45,3.45,0,0,1-.75-.12l-2.11-.47c-1.83-.42-4.47-1.07-7.71-1.91-6.5-1.67-15.41-4.21-25.38-6.55a213,213,0,0,1-25.07-7.72c-3.14-1.19-5.64-2.25-7.36-3-.86-.37-1.52-.69-2-.9a4.74,4.74,0,0,1-.67-.34,4,4,0,0,1,.71.25l2,.81c1.74.7,4.26,1.7,7.41,2.85A240.84,240.84,0,0,0,252.91,234c10,2.33,18.88,4.93,25.35,6.69l7.67,2.07,2.09.56A5.11,5.11,0,0,1,288.74,243.57Z"
              style="fill:#455a64"></path>
        <path d="M294.37,236.73a9.58,9.58,0,0,1-2.38,3.85,9.47,9.47,0,0,1-3.59,2.75c-.09-.13,1.57-1.27,3.21-3.1S294.23,236.66,294.37,236.73Z"
              style="fill:#455a64"></path>
        <path d="M297.8,242a11.22,11.22,0,0,1-4.57,1.43,11.35,11.35,0,0,1-4.79-.08c0-.16,2.14-.06,4.71-.43S297.75,241.8,297.8,242Z"
              style="fill:#455a64"></path>
        <path d="M233.42,195.77c0-.13,14,4.13,31.08,9.53s31,9.88,30.92,10-14-4.13-31.08-9.53S233.38,195.91,233.42,195.77Z"
              style="fill:#455a64"></path>
        <path d="M234.3,130.07a13.06,13.06,0,0,0,1.65-3.26,17.18,17.18,0,0,0,.76-3.89,16,16,0,0,0-.29-4.82,11.38,11.38,0,0,0-2.1-4.3,11.15,11.15,0,0,0-2.95-2.59A24.85,24.85,0,0,0,228,109.7a3.6,3.6,0,0,1,1,.17,11.06,11.06,0,0,1,2.54,1,10.65,10.65,0,0,1,3.15,2.61,11.43,11.43,0,0,1,2.22,4.48,15.22,15.22,0,0,1,.27,5,15.74,15.74,0,0,1-.9,4,8.64,8.64,0,0,1-1.29,2.42C234.61,129.87,234.32,130.09,234.3,130.07Z"
              style="fill:#263238"></path>
        <g style="opacity:0.30000000000000004">
            <path d="M223,137.78c2.65-.69,8.12-3.65,8.12-3.65-3.29,8.65-6.83,19-9.92,27.72.9-8.06.9-16,1.8-24.07"></path>
        </g>
        <path d="M192.61,143.12a8.29,8.29,0,0,1,3.1,2.25,8.18,8.18,0,0,1,2.17,3.16c-.13.08-1.09-1.31-2.54-2.79S192.52,143.25,192.61,143.12Z"
              style="fill:#263238"></path>
        <path d="M195.87,137.7a13.89,13.89,0,0,1,2.38,10.46,49.5,49.5,0,0,0-.64-5.35A49.32,49.32,0,0,0,195.87,137.7Z"
              style="fill:#263238"></path>
        <path d="M216.1,161.55c0,.15,0,.27-.1.27s-.09-.12-.09-.27,0-.26.09-.26S216.1,161.41,216.1,161.55Z"
              style="fill:#263238"></path>
        <path d="M263.35,198.62a2.46,2.46,0,0,1,.08-.6l.34-1.7c.33-1.54.77-3.65,1.32-6.23l4.32-20.55c1.69-8,3.21-15.24,4.33-20.56.56-2.57,1-4.68,1.35-6.22l.39-1.69a4.55,4.55,0,0,1,.17-.58,2.24,2.24,0,0,1-.06.6c-.08.45-.18,1-.3,1.71-.29,1.55-.7,3.67-1.19,6.26-1,5.27-2.49,12.56-4.18,20.59s-3.27,15.28-4.47,20.52c-.61,2.62-1.11,4.74-1.48,6.2-.18.68-.32,1.24-.43,1.67A2.64,2.64,0,0,1,263.35,198.62Z"
              style="fill:#263238"></path>
        <path d="M286.13,166.75a7.93,7.93,0,0,1,1.05-4.26,8.07,8.07,0,0,1,2.78-3.41c.12.12-1.26,1.51-2.31,3.64S286.29,166.78,286.13,166.75Z"
              style="fill:#263238"></path>
        <path d="M288.47,169.18A13.22,13.22,0,0,1,290,159c.15.07-.87,2.19-1.27,5A49.67,49.67,0,0,0,288.47,169.18Z"
              style="fill:#263238"></path>
        <polygon points="336.79 160.11 329.16 160.18 330.11 162.6 336.73 161.04 336.79 160.11"
                 style="fill:#ffbe9d"></polygon>
        <g style="opacity:0.30000000000000004">
            <path d="M271.51,160.91s5.08,8.88,5,8.65c.34-8.48.31-16.57-1.65-24.83"></path>
        </g>
        <path d="M261.82,118c0,.05-.69.67-1.85,1.8s-2.75,2.79-4.83,4.51l-.23.19-.14-.26-2.3-4.26c-1.87-3.39-3.64-6.41-4.93-8.59L246,108.76a4.38,4.38,0,0,1-.5-1,4.48,4.48,0,0,1,.68.87c.4.58,1,1.43,1.66,2.5,1.38,2.14,3.2,5.14,5.07,8.54.83,1.5,1.6,3,2.28,4.28l-.37-.08c2.07-1.66,3.7-3.3,4.94-4.35A11.25,11.25,0,0,1,261.82,118Z"
              style="fill:#263238"></path>
        <path d="M270.91,120.36a3.33,3.33,0,0,1-.64,1c-.44.63-1.15,1.48-1.88,2.51l-.28.38-.14-.44c-.29-.9-.59-1.87-.92-2.89l-.59-2,.44.09a33.55,33.55,0,0,1-3.55,4,33.2,33.2,0,0,1,3.15-4.33l.29-.37.15.46.61,1.93q.45,1.52.87,2.88l-.42-.06c.8-1,1.54-1.83,2.05-2.41S270.86,120.33,270.91,120.36Z"
              style="fill:#263238"></path>
        <path d="M263.35,122.91a5.21,5.21,0,0,1-1-2.53,11.36,11.36,0,0,1-.51-2.64,5.25,5.25,0,0,1,1,2.52A12.05,12.05,0,0,1,263.35,122.91Z"
              style="fill:#263238"></path>
        <path d="M255.56,193.75s.56.32,1,1.23a4.32,4.32,0,0,1-3.08,6.07,2.26,2.26,0,0,1-1.57-.07c0-.08.6,0,1.48-.28a4.23,4.23,0,0,0,2.83-5.58C255.9,194.25,255.49,193.81,255.56,193.75Z"
              style="fill:#263238"></path>
        <path d="M264.64,124.25a3.47,3.47,0,0,1,0,.71c0,.52,0,1.2-.07,2-.06,1.77-.21,4.33-.45,7.49-.46,6.32-1.35,15-2.83,24.61s-3.28,18.14-4.76,24.3c-.73,3.09-1.37,5.57-1.84,7.28l-.55,2a3.31,3.31,0,0,1-.23.68,5,5,0,0,1,.13-.7c.11-.51.27-1.17.45-2,.42-1.72,1-4.22,1.69-7.31,1.38-6.18,3.11-14.76,4.6-24.3s2.42-18.25,3-24.56c.28-3.15.48-5.71.61-7.47.07-.84.12-1.52.17-2A3.27,3.27,0,0,1,264.64,124.25Z"
              style="fill:#263238"></path>
        <path d="M259.89,193.29a8.5,8.5,0,0,1-2.45.52,24.56,24.56,0,0,1-6,0,25.15,25.15,0,0,1-5.86-1.44,8.62,8.62,0,0,1-2.24-1.1,47.4,47.4,0,0,0,8.16,2A46.8,46.8,0,0,0,259.89,193.29Z"
              style="fill:#263238"></path>
        <path d="M227.39,187.62a29.64,29.64,0,0,1-11-5.25c.08-.13,2.42,1.29,5.46,2.73S227.44,187.48,227.39,187.62Z"
              style="fill:#263238"></path>
        <path d="M208.18,174.78c0,.15-.05.26-.12.26s-.11-.11-.11-.26.05-.26.11-.26S208.18,174.64,208.18,174.78Z"
              style="fill:#263238"></path>
        <path d="M206.27,132.81a14.31,14.31,0,0,1,.33-3.78,14.2,14.2,0,0,1,.85-3.7,13.35,13.35,0,0,1-.33,3.78A14.2,14.2,0,0,1,206.27,132.81Z"
              style="fill:#fff"></path>
        <path d="M223.56,129.9a11.69,11.69,0,0,1-2.15-1.59c-1.15-.89-2.16-1.53-2.09-1.67a5.19,5.19,0,0,1,2.41,1.26C222.93,128.82,223.66,129.81,223.56,129.9Z"
              style="fill:#fff"></path>
        <path d="M192.12,138.59a5.35,5.35,0,0,1-2.1-.92c-1.09-.64-1.91-1.25-1.84-1.38a5.29,5.29,0,0,1,2.1.93C191.37,137.85,192.19,138.46,192.12,138.59Z"
              style="fill:#fff"></path>
        <path d="M189.89,151.25a13.48,13.48,0,0,1-3.47,1.37,13.32,13.32,0,0,1-3.62.86,14.14,14.14,0,0,1,3.47-1.36A13.58,13.58,0,0,1,189.89,151.25Z"
              style="fill:#fff"></path>
        <path d="M181.54,172.77a13.31,13.31,0,0,1-1-6.79,17.91,17.91,0,0,1,.57,3.38A18,18,0,0,1,181.54,172.77Z"
              style="fill:#fff"></path>
        <path d="M216.35,138.26a23.29,23.29,0,0,1-3.6,1.23,22.94,22.94,0,0,1-3.63,1.14,15.59,15.59,0,0,1,7.23-2.37Z"
              style="fill:#fff"></path>
        <path d="M230.05,117.11a20.33,20.33,0,0,1-4.56-.59,20.75,20.75,0,0,1-4.47-1.11,20.14,20.14,0,0,1,4.57.6A20.7,20.7,0,0,1,230.05,117.11Z"
              style="fill:#fff"></path>
        <path d="M240.73,117.61a10.71,10.71,0,0,1,.81-3.26,10.72,10.72,0,0,1,1.3-3.1,11.08,11.08,0,0,1-.81,3.26A11.06,11.06,0,0,1,240.73,117.61Z"
              style="fill:#fff"></path>
        <path d="M250.15,129.34a15,15,0,0,1-4.38-5.52,17.72,17.72,0,0,1,2.27,2.7A16.94,16.94,0,0,1,250.15,129.34Z"
              style="fill:#fff"></path>
        <path d="M240,139.52a11.54,11.54,0,0,1-.54-3.37,11.74,11.74,0,0,1,0-3.42,11,11,0,0,1,.54,3.38A10.87,10.87,0,0,1,240,139.52Z"
              style="fill:#fff"></path>
        <path d="M229.07,145.18c-.09.11-1-.53-1.94-1.43s-1.69-1.72-1.59-1.82,1,.54,1.94,1.43S229.17,145.08,229.07,145.18Z"
              style="fill:#fff"></path>
        <path d="M234.58,152.65a9.17,9.17,0,0,1-5.36,1.49,12,12,0,0,1,2.66-.84A11,11,0,0,1,234.58,152.65Z"
              style="fill:#fff"></path>
        <path d="M253.83,146.74a12.51,12.51,0,0,1-.85-6.51,16,16,0,0,1,.51,3.24A16.14,16.14,0,0,1,253.83,146.74Z"
              style="fill:#fff"></path>
        <path d="M249.7,161a9.63,9.63,0,0,1-1.66-2.7,9.89,9.89,0,0,1-1.2-2.94,9.63,9.63,0,0,1,1.66,2.7A9.89,9.89,0,0,1,249.7,161Z"
              style="fill:#fff"></path>
        <path d="M234.71,170.64a15.05,15.05,0,0,1,1-3.76,14.36,14.36,0,0,1,1.54-3.59,15.05,15.05,0,0,1-1,3.76A14.36,14.36,0,0,1,234.71,170.64Z"
              style="fill:#fff"></path>
        <path d="M228.43,178.74a6.52,6.52,0,0,1-1.07-2.26,6,6,0,0,1-.58-2.43,6.29,6.29,0,0,1,1.07,2.26A6,6,0,0,1,228.43,178.74Z"
              style="fill:#fff"></path>
        <path d="M250.42,177.27a13.06,13.06,0,0,1-3.14,1.91,13.23,13.23,0,0,1-3.39,1.44,13.52,13.52,0,0,1,3.15-1.91A13.24,13.24,0,0,1,250.42,177.27Z"
              style="fill:#fff"></path>
        <path d="M236.39,189.46a4.55,4.55,0,0,1-.46-2.09c-.11-1.18-.09-2.14.06-2.15a4.57,4.57,0,0,1,.46,2.1C236.56,188.49,236.54,189.45,236.39,189.46Z"
              style="fill:#fff"></path>
        <path d="M220.17,189.74c-.11.08-.78-.78-1.07-2.06a3.36,3.36,0,0,1,.05-2.32,12.48,12.48,0,0,1,.46,2.2A12.88,12.88,0,0,1,220.17,189.74Z"
              style="fill:#fff"></path>
        <path d="M248,195.67a7.45,7.45,0,0,1-2.54,1.1,7.75,7.75,0,0,1-2.69.61,7.34,7.34,0,0,1,2.53-1.1A7.78,7.78,0,0,1,248,195.67Z"
              style="fill:#fff"></path>
        <path d="M260.05,199.79c-.14,0-.41-.78-.6-1.79s-.24-1.86-.1-1.89.41.77.61,1.79S260.2,199.76,260.05,199.79Z"
              style="fill:#fff"></path>
        <path d="M261.6,185.79a6.18,6.18,0,0,1-1.26-2.15,6.11,6.11,0,0,1-.78-2.35,6.2,6.2,0,0,1,1.26,2.14A6.13,6.13,0,0,1,261.6,185.79Z"
              style="fill:#fff"></path>
        <path d="M266.28,170.51c.08.12-.85.82-2.06,1.56a6.4,6.4,0,0,1-2.33,1.12,6.76,6.76,0,0,1,2.06-1.56A6.48,6.48,0,0,1,266.28,170.51Z"
              style="fill:#fff"></path>
        <path d="M266.55,161.74a4.82,4.82,0,0,1-1.06-2.3,4.69,4.69,0,0,1-.21-2.52,9.52,9.52,0,0,1,.71,2.39A8.9,8.9,0,0,1,266.55,161.74Z"
              style="fill:#fff"></path>
        <path d="M271.34,141.6a10.81,10.81,0,0,1-2.46,2.12,10.54,10.54,0,0,1-2.77,1.71,10.43,10.43,0,0,1,2.46-2.13A9.88,9.88,0,0,1,271.34,141.6Z"
              style="fill:#fff"></path>
        <path d="M272.21,135.29c-.08.11-1-.45-1.83-1.52a3.6,3.6,0,0,1-1-2.17c.14-.06.63.86,1.39,1.85S272.3,135.17,272.21,135.29Z"
              style="fill:#fff"></path>
        <path d="M279.54,149.14a10,10,0,0,1,.31-3.16,10.1,10.1,0,0,1,.81-3.07,9.79,9.79,0,0,1-.3,3.16A9.93,9.93,0,0,1,279.54,149.14Z"
              style="fill:#fff"></path>
        <path d="M284.09,158.5a7.71,7.71,0,0,1-2.71-.74,7.53,7.53,0,0,1-2.52-1.23,8,8,0,0,1,2.71.74A7.85,7.85,0,0,1,284.09,158.5Z"
              style="fill:#fff"></path>
        <path d="M282.92,172.23a7.11,7.11,0,0,1-1.34-2.31,6.87,6.87,0,0,1-.87-2.53,13.77,13.77,0,0,1,2.21,4.84Z"
              style="fill:#fff"></path>
        <path d="M298,164.57a20.79,20.79,0,0,1-2.37,2.71,20.86,20.86,0,0,1-2.46,2.65,9.41,9.41,0,0,1,2.07-3A9.24,9.24,0,0,1,298,164.57Z"
              style="fill:#fff"></path>
        <path d="M307.29,166.7a8.91,8.91,0,0,1-2.18-2,8.75,8.75,0,0,1-1.8-2.37,17.3,17.3,0,0,1,4,4.38Z"
              style="fill:#fff"></path>
        <polygon
                points="326.68 141.05 326.68 135.4 323.71 135.4 328.27 129.01 332.83 135.4 329.97 135.4 329.97 141.05 326.68 141.05"
                style="fill:#7E57C2"></polygon>
        <polygon
                points="320.6 145.87 320.6 141.92 318.52 141.92 321.72 137.45 324.91 141.92 322.91 141.92 322.91 145.87 320.6 145.87"
                style="fill:#7E57C2"></polygon>
        <path d="M282.43,298.88a4.49,4.49,0,0,1-.49.08l-1.47.19c-.65.06-1.45.17-2.39.34s-2,.32-3.24.6A69,69,0,0,0,243.21,316a66.31,66.31,0,0,0-11.07,12.81,68.64,68.64,0,0,0-11.38,37.1v.88l-.47-.74a40.76,40.76,0,0,0-9.64-10.29c-12.6-9.45-28.43-12.92-41.82-10.64l-2.48.52a7.19,7.19,0,0,0-1.21.32l-1.19.38c-.78.27-1.59.46-2.33.79l-2.24,1a21.63,21.63,0,0,0-2.16,1.06l-2.09,1.11-2,1.24a20.46,20.46,0,0,0-1.9,1.29,55,55,0,0,0-11.91,11.84,66,66,0,0,0-7,12l-1.17,2.73c-.35.88-.65,1.75-.95,2.58-.64,1.64-1,3.2-1.48,4.57-.76,2.79-1.28,5-1.54,6.48-.14.73-.25,1.3-.33,1.7s-.13.58-.13.58a5.24,5.24,0,0,1,.08-.59c.06-.4.16-1,.28-1.71a66.64,66.64,0,0,1,1.45-6.51c.42-1.39.8-3,1.43-4.61.3-.82.59-1.7.94-2.59l1.16-2.75a65.73,65.73,0,0,1,7-12.1,54.87,54.87,0,0,1,12-12,20.71,20.71,0,0,1,1.91-1.3l2-1.27,2.11-1.12a19.14,19.14,0,0,1,2.18-1.07l2.26-1c.75-.34,1.57-.53,2.36-.81l1.2-.38a7.44,7.44,0,0,1,1.23-.33l2.51-.53c13.54-2.33,29.48,1.15,42.21,10.7a41.13,41.13,0,0,1,9.76,10.43l-.47.13a68.83,68.83,0,0,1,11.51-37.35,66.15,66.15,0,0,1,11.17-12.86,69.89,69.89,0,0,1,12-8.52,67.8,67.8,0,0,1,19.82-7.3c1.22-.27,2.31-.42,3.26-.56s1.75-.25,2.4-.3l1.47-.14C282.26,298.88,282.43,298.88,282.43,298.88Z"
              style="fill:#263238"></path>
    </g>
    <g id="freepik--Levels--inject-207">
        <rect x="373.71" y="307.6" width="68.25" height="172.67" style="fill:#7E57C2"></rect>
        <g style="opacity:0.30000000000000004">
            <rect x="373.71" y="307.6" width="68.25" height="172.67"></rect>
        </g>
        <rect x="357.03" y="307.6" width="68.25" height="172.67" style="fill:#7E57C2"></rect>
        <g style="opacity:0.4">
            <path d="M388.43,376.71v9.55h-1.82l-4.76-5.8v5.8h-2.18v-9.55h1.83l4.75,5.8v-5.8Z" style="fill:#fff"></path>
            <path d="M389.89,378.28a2.61,2.61,0,1,1,2.59,2.26A2.36,2.36,0,0,1,389.89,378.28Zm3.72,0a1.14,1.14,0,0,0-2.28,0,1.14,1.14,0,0,0,2.28,0Z"
                  style="fill:#fff"></path>
            <path d="M404.49,384.25h-1.55v2h-2.16v-2h-5.14v-1.49l4.5-6.05h2.32l-4.17,5.74h2.56v-1.79h2.09v1.79h1.55Z"
                  style="fill:#fff"></path>
        </g>
        <path d="M442,315.52a4.81,4.81,0,0,1-.56,1l-1.69,2.66c-1.44,2.24-3.46,5.3-5.73,8.67s-4.35,6.4-5.88,8.57a25.87,25.87,0,0,1-2.61,3.43,1.36,1.36,0,0,1,.14-.26l.45-.73c.47-.72,1-1.6,1.71-2.65,1.46-2.22,3.49-5.29,5.76-8.65s4.34-6.4,5.86-8.58l1.82-2.57A4.8,4.8,0,0,1,442,315.52Z"
              style="fill:#7E57C2"></path>
        <path d="M442,346.62a4.81,4.81,0,0,1-.56,1l-1.69,2.66c-1.44,2.24-3.46,5.3-5.73,8.67s-4.35,6.39-5.88,8.57a25.87,25.87,0,0,1-2.61,3.43,1.6,1.6,0,0,1,.14-.27c.14-.22.29-.45.45-.73.47-.71,1-1.6,1.71-2.64,1.46-2.23,3.49-5.29,5.76-8.65s4.34-6.4,5.86-8.58l1.82-2.57A4.8,4.8,0,0,1,442,346.62Z"
              style="fill:#7E57C2"></path>
        <path d="M442,377.71a5,5,0,0,1-.56,1l-1.69,2.66c-1.44,2.23-3.46,5.3-5.73,8.67s-4.35,6.39-5.88,8.56a25.64,25.64,0,0,1-2.61,3.44,1.6,1.6,0,0,1,.14-.27l.45-.73,1.71-2.64c1.46-2.23,3.49-5.29,5.76-8.66s4.34-6.39,5.86-8.58l1.82-2.56A5.17,5.17,0,0,1,442,377.71Z"
              style="fill:#7E57C2"></path>
        <path d="M442,408.81a5,5,0,0,1-.56,1l-1.69,2.66c-1.44,2.23-3.46,5.3-5.73,8.66s-4.35,6.4-5.88,8.57a25,25,0,0,1-2.61,3.43,2.93,2.93,0,0,1,.14-.26c.14-.22.29-.46.45-.73l1.71-2.64c1.46-2.23,3.49-5.29,5.76-8.66s4.34-6.4,5.86-8.58l1.82-2.57A4.8,4.8,0,0,1,442,408.81Z"
              style="fill:#7E57C2"></path>
        <path d="M442,439.91a4.81,4.81,0,0,1-.56,1l-1.69,2.67c-1.44,2.23-3.46,5.3-5.73,8.66s-4.35,6.4-5.88,8.57a25.87,25.87,0,0,1-2.61,3.43,2.93,2.93,0,0,1,.14-.26l.45-.73c.47-.72,1-1.6,1.71-2.65,1.46-2.22,3.49-5.28,5.76-8.65s4.34-6.4,5.86-8.58l1.82-2.57A4.8,4.8,0,0,1,442,439.91Z"
              style="fill:#7E57C2"></path>
        <path d="M442,471a34.26,34.26,0,0,1-3.11,5.1,34.82,34.82,0,0,1-3.55,4.81,34.31,34.31,0,0,1,3.12-5.1A33.6,33.6,0,0,1,442,471Z"
              style="fill:#7E57C2"></path>
        <rect x="278.54" y="339.86" width="68.25" height="140.41" style="fill:#7E57C2"></rect>
        <g style="opacity:0.30000000000000004">
            <rect x="278.54" y="339.86" width="68.25" height="140.41"></rect>
        </g>
        <rect x="261.86" y="339.86" width="68.25" height="140.41" style="fill:#7E57C2"></rect>
        <g style="opacity:0.4">
            <path d="M293.32,395.22v9.63h-1.81L286.75,399v5.85h-2.18v-9.63h1.82l4.75,5.85v-5.85Z"
                  style="fill:#fff"></path>
            <path d="M294.78,396.8a2.6,2.6,0,1,1,2.59,2.29A2.36,2.36,0,0,1,294.78,396.8Zm3.73,0a1.14,1.14,0,0,0-2.28,0,1.14,1.14,0,1,0,2.28,0Z"
                  style="fill:#fff"></path>
            <path d="M307.85,401.9c0,1.63-1.24,3.11-4,3.11a6.54,6.54,0,0,1-3.64-1l.86-1.7a4.6,4.6,0,0,0,2.73.86c1.1,0,1.78-.45,1.78-1.24s-.53-1.18-1.78-1.18h-1v-1.47l2-2.24h-4.06v-1.79h6.68v1.45l-2.15,2.47A2.73,2.73,0,0,1,307.85,401.9Z"
                  style="fill:#fff"></path>
        </g>
        <path d="M346.79,345.48a5,5,0,0,1-.56,1l-1.69,2.68c-1.44,2.25-3.46,5.35-5.73,8.74s-4.35,6.45-5.88,8.64a26.67,26.67,0,0,1-2.61,3.47,1,1,0,0,1,.14-.27c.14-.22.28-.46.45-.74l1.71-2.66c1.46-2.25,3.49-5.33,5.76-8.73s4.33-6.45,5.86-8.65l1.82-2.59A4.71,4.71,0,0,1,346.79,345.48Z"
              style="fill:#7E57C2"></path>
        <path d="M346.79,376.84a5,5,0,0,1-.56,1l-1.69,2.68c-1.44,2.26-3.46,5.35-5.73,8.74s-4.35,6.45-5.88,8.64a25.79,25.79,0,0,1-2.61,3.47,1,1,0,0,1,.14-.27l.45-.73c.46-.73,1-1.62,1.71-2.67,1.46-2.25,3.49-5.33,5.76-8.73s4.33-6.45,5.86-8.65l1.82-2.59A4.71,4.71,0,0,1,346.79,376.84Z"
              style="fill:#7E57C2"></path>
        <path d="M346.79,408.2a5,5,0,0,1-.56,1l-1.69,2.69c-1.44,2.25-3.46,5.34-5.73,8.73s-4.35,6.45-5.88,8.65a26,26,0,0,1-2.61,3.46,1,1,0,0,1,.14-.27l.45-.73c.46-.73,1-1.62,1.71-2.67,1.46-2.24,3.49-5.33,5.76-8.73s4.33-6.45,5.86-8.65l1.82-2.59A5.17,5.17,0,0,1,346.79,408.2Z"
              style="fill:#7E57C2"></path>
        <path d="M346.79,439.56a5,5,0,0,1-.56,1l-1.69,2.69c-1.44,2.25-3.46,5.34-5.73,8.74s-4.35,6.45-5.88,8.64a26,26,0,0,1-2.61,3.46,1,1,0,0,1,.14-.27l.45-.73c.46-.72,1-1.61,1.71-2.67,1.46-2.24,3.49-5.33,5.76-8.72s4.33-6.46,5.86-8.66l1.82-2.59A5.17,5.17,0,0,1,346.79,439.56Z"
              style="fill:#7E57C2"></path>
        <path d="M346.79,470.92a34.54,34.54,0,0,1-3.11,5.14,35.09,35.09,0,0,1-3.55,4.86,34.54,34.54,0,0,1,3.11-5.14A35.09,35.09,0,0,1,346.79,470.92Z"
              style="fill:#7E57C2"></path>
        <rect x="182.87" y="376.84" width="68.25" height="103.43" style="fill:#7E57C2"></rect>
        <g style="opacity:0.30000000000000004">
            <rect x="182.87" y="376.84" width="68.25" height="103.43"></rect>
        </g>
        <rect x="166.19" y="376.84" width="68.25" height="103.43" style="fill:#7E57C2"></rect>
        <g style="opacity:0.4">
            <path d="M197.65,417.78v9.62h-1.82l-4.76-5.84v5.84h-2.18v-9.62h1.83l4.75,5.84v-5.84Z"
                  style="fill:#fff"></path>
            <path d="M199.11,419.36a2.61,2.61,0,1,1,2.59,2.28A2.36,2.36,0,0,1,199.11,419.36Zm3.72,0a1.14,1.14,0,0,0-2.28,0,1.14,1.14,0,1,0,2.28,0Z"
                  style="fill:#fff"></path>
            <path d="M212.54,425.59v1.81h-7.22V426l3.69-3.51c.84-.81,1-1.3,1-1.77,0-.76-.52-1.2-1.53-1.2a2.32,2.32,0,0,0-2,1l-1.61-1.05a4.4,4.4,0,0,1,3.79-1.79c2.13,0,3.55,1.1,3.55,2.85,0,.93-.26,1.79-1.6,3l-2.2,2.09Z"
                  style="fill:#fff"></path>
        </g>
        <path d="M251.11,376.84a5,5,0,0,1-.56,1c-.45.73-1,1.62-1.68,2.68-1.45,2.26-3.47,5.35-5.74,8.74s-4.35,6.45-5.88,8.64a25.33,25.33,0,0,1-2.6,3.47s0-.1.14-.27l.45-.73q.69-1.09,1.71-2.67c1.45-2.25,3.48-5.33,5.75-8.73s4.34-6.45,5.86-8.65l1.83-2.59A5,5,0,0,1,251.11,376.84Z"
              style="fill:#7E57C2"></path>
        <path d="M251.11,408.2a5,5,0,0,1-.56,1l-1.68,2.69c-1.45,2.25-3.47,5.34-5.74,8.73s-4.35,6.45-5.88,8.65a25.55,25.55,0,0,1-2.6,3.46s0-.1.14-.27l.45-.73q.69-1.1,1.71-2.67c1.45-2.24,3.48-5.33,5.75-8.73s4.34-6.45,5.86-8.65l1.83-2.59A5.5,5.5,0,0,1,251.11,408.2Z"
              style="fill:#7E57C2"></path>
        <path d="M251.11,439.56a5,5,0,0,1-.56,1l-1.68,2.69c-1.45,2.25-3.47,5.34-5.74,8.74s-4.35,6.45-5.88,8.64a25.55,25.55,0,0,1-2.6,3.46s0-.1.14-.27l.45-.73,1.71-2.67c1.45-2.24,3.48-5.33,5.75-8.72s4.34-6.46,5.86-8.66l1.83-2.59A5.5,5.5,0,0,1,251.11,439.56Z"
              style="fill:#7E57C2"></path>
        <path d="M251.11,470.92a34.54,34.54,0,0,1-3.11,5.14,35.55,35.55,0,0,1-3.54,4.86,34.54,34.54,0,0,1,3.11-5.14A35.55,35.55,0,0,1,251.11,470.92Z"
              style="fill:#7E57C2"></path>
        <rect x="87.19" y="408.2" width="68.25" height="72.07" style="fill:#7E57C2"></rect>
        <g style="opacity:0.30000000000000004">
            <rect x="87.19" y="408.2" width="68.25" height="72.07"></rect>
        </g>
        <rect x="70.51" y="408.2" width="68.25" height="72.07" style="fill:#7E57C2"></rect>
        <g style="opacity:0.4">
            <path d="M102,438.74v9.62h-1.81l-4.76-5.84v5.84H93.22v-9.62H95l4.75,5.84v-5.84Z" style="fill:#fff"></path>
            <path d="M103.43,440.32A2.61,2.61,0,1,1,106,442.6,2.36,2.36,0,0,1,103.43,440.32Zm3.72,0a1.14,1.14,0,1,0-1.13,1.14A1.07,1.07,0,0,0,107.15,440.32Z"
                  style="fill:#fff"></path>
            <path d="M113.47,438.74v9.62h-2.21v-7.84h-1.91v-1.78Z" style="fill:#fff"></path>
        </g>
        <path d="M155.44,408.2a5,5,0,0,1-.56,1l-1.69,2.69c-1.44,2.25-3.47,5.34-5.73,8.73s-4.35,6.45-5.88,8.65a26,26,0,0,1-2.61,3.46,1,1,0,0,1,.14-.27l.45-.73c.46-.73,1-1.62,1.71-2.67,1.46-2.24,3.49-5.33,5.75-8.73s4.34-6.45,5.87-8.65l1.82-2.59A5.17,5.17,0,0,1,155.44,408.2Z"
              style="fill:#7E57C2"></path>
        <path d="M155.44,439.56a5,5,0,0,1-.56,1l-1.69,2.69c-1.44,2.25-3.47,5.34-5.73,8.74s-4.35,6.45-5.88,8.64a26,26,0,0,1-2.61,3.46,1,1,0,0,1,.14-.27l.45-.73c.46-.72,1-1.61,1.71-2.67,1.46-2.24,3.49-5.33,5.75-8.72s4.34-6.46,5.87-8.66l1.82-2.59A5.17,5.17,0,0,1,155.44,439.56Z"
              style="fill:#7E57C2"></path>
        <path d="M155.44,470.92a35.61,35.61,0,0,1-3.11,5.14,35.09,35.09,0,0,1-3.55,4.86,34.54,34.54,0,0,1,3.11-5.14A35.09,35.09,0,0,1,155.44,470.92Z"
              style="fill:#7E57C2"></path>
    </g>
    <g id="freepik--Floor--inject-207">
        <path d="M474.12,480.28c0,.14-100.35.26-224.11.26s-224.13-.12-224.13-.26S126.21,480,250,480,474.12,480.13,474.12,480.28Z"
              style="fill:#263238"></path>
    </g>
</svg>
